<svg version="1" xmlns="http://www.w3.org/2000/svg" width="682.667" height="682.667" viewBox="0 0 512.000000 512.000000"><path d="M395.5 16.1c-4.9 1.5-19.3 6-32 9.9-12.6 4-25.7 8-29.1 9-9.5 2.8-14.9 5.5-17.2 8.7-9.3 13 5.1 27.1 22.5 22l5.2-1.6-5.2 6.7c-6.2 8-7.4 9.4-15.7 19.1-10.9 12.8-14.8 16.9-35 37.1-24.3 24.3-33.8 33.2-57.5 53.6-15.2 13.1-21.5 18.4-28.5 23.9-4.1 3.3-7.7 6.3-8 6.6-1.3 1.6-33.1 26.1-55.4 42.8-29.5 22-48.6 35.6-76 54.1-10.9 7.4-20.8 14.7-21.9 16.2-2.9 4-3.1 10.9-.4 15 4.3 6.4 13.9 9.3 21.8 6.6 4.2-1.4 35.8-22.3 60.2-39.8 6.5-4.7 12.8-9.2 14-10 3.5-2.3 56.3-41.7 58.9-43.8 1.2-1.1 9.3-7.5 17.8-14.3 8.5-6.8 15.7-12.5 16-12.9.3-.3 3-2.5 6-5s6-4.9 6.6-5.5c.6-.5 3.6-3 6.5-5.5 5.9-5 20.5-17.6 23-20 .8-.8 5.3-4.9 9.9-9 22-19.8 49.6-47.7 68.1-69 4.1-4.7 7.8-9 8.4-9.6.5-.6 5-6.3 9.9-12.7 5-6.4 9.1-11.5 9.2-11.4.1.1.5 2.2.8 4.7 1.2 8.3 1.7 9.8 4.4 12.6 8.7 8.8 24.5 7 30.1-3.4 1.6-3 1.5-9.7-.4-21.1-.2-1.4-1.3-9.6-2.5-18.1-1.2-8.5-2.3-16.6-2.5-18-.2-1.4-.7-5-1-8-.4-3-1-7.1-1.3-9.1l-.7-3.5-9 2.7zM445.9 50c-.1.7-.1 398.1 0 399.6.1.8 7.2 1.2 25.1 1.1 24.6 0 25-.1 25.1-2.1.4-8.9.3-397-.1-397.9-.4-1-6.3-1.3-25.2-1.2-13.7 0-24.8.2-24.9.5zM355.1 139c-.4.3-.8 70.5-.7 156.1v155.6l25-.1 25.1-.1v-312h-24.3c-13.4 0-24.7.2-25.1.5zM266 341v109.7l25.2-.1 25.3-.1.1-108.5c0-59.7-.1-109-.3-109.6-.3-.8-7.8-1.1-25.4-1.1H266V341zM175.7 328.2c-.9.5-1.2 15.5-1.2 61.5v60.8h25.3l25.2.1v-61.3c0-33.7-.3-61.3-.7-61.4-3.5-.5-47.7-.2-48.6.3zM80.3 375.8l-2.3.3v74.6l23.8.1c13 0 24.4-.1 25.2-.4 1.3-.3 1.5-5.3 1.5-36.8 0-20-.3-36.7-.7-37.1-.6-.7-43.3-1.3-47.5-.7zM0 480.2V499h512v-37.6l-256-.1H0v18.9z"/></svg>